<mxfile host="app.diagrams.net" agent="Mozilla/5.0 (Windows NT 10.0; Win64; x64) AppleWebKit/537.36 (KHTML, like Gecko) Chrome/128.0.0.0 Safari/537.36" version="24.7.8">
  <diagram name="Page-1" id="286-Fr1HfKGzPlJhb9lN">
    <mxGraphModel dx="1674" dy="772" grid="1" gridSize="10" guides="1" tooltips="1" connect="1" arrows="1" fold="1" page="1" pageScale="1" pageWidth="850" pageHeight="1100" math="0" shadow="0">
      <root>
        <mxCell id="0" />
        <mxCell id="1" parent="0" />
        <mxCell id="9YrNIW8wtf2WuMJT0hMV-1" value="START" style="rounded=1;whiteSpace=wrap;html=1;" vertex="1" parent="1">
          <mxGeometry x="170" y="90" width="120" height="60" as="geometry" />
        </mxCell>
        <mxCell id="9YrNIW8wtf2WuMJT0hMV-2" value="STOP" style="rounded=1;whiteSpace=wrap;html=1;" vertex="1" parent="1">
          <mxGeometry x="170" y="620" width="120" height="60" as="geometry" />
        </mxCell>
        <mxCell id="9YrNIW8wtf2WuMJT0hMV-4" value="a: int&lt;br&gt;&quot;enter a&quot;:" style="shape=card;whiteSpace=wrap;html=1;" vertex="1" parent="1">
          <mxGeometry x="190" y="170" width="80" height="90" as="geometry" />
        </mxCell>
        <mxCell id="9YrNIW8wtf2WuMJT0hMV-5" value="b: int&lt;br&gt;&quot;enter b&quot;:" style="shape=card;whiteSpace=wrap;html=1;" vertex="1" parent="1">
          <mxGeometry x="190" y="270" width="80" height="90" as="geometry" />
        </mxCell>
        <mxCell id="9YrNIW8wtf2WuMJT0hMV-9" value="" style="edgeStyle=orthogonalEdgeStyle;rounded=0;orthogonalLoop=1;jettySize=auto;html=1;" edge="1" parent="1" source="9YrNIW8wtf2WuMJT0hMV-6" target="9YrNIW8wtf2WuMJT0hMV-7">
          <mxGeometry relative="1" as="geometry" />
        </mxCell>
        <mxCell id="9YrNIW8wtf2WuMJT0hMV-13" value="YES" style="edgeLabel;html=1;align=center;verticalAlign=middle;resizable=0;points=[];" vertex="1" connectable="0" parent="9YrNIW8wtf2WuMJT0hMV-9">
          <mxGeometry y="-2" relative="1" as="geometry">
            <mxPoint as="offset" />
          </mxGeometry>
        </mxCell>
        <mxCell id="9YrNIW8wtf2WuMJT0hMV-10" value="" style="edgeStyle=orthogonalEdgeStyle;rounded=0;orthogonalLoop=1;jettySize=auto;html=1;" edge="1" parent="1" source="9YrNIW8wtf2WuMJT0hMV-6" target="9YrNIW8wtf2WuMJT0hMV-8">
          <mxGeometry relative="1" as="geometry" />
        </mxCell>
        <mxCell id="9YrNIW8wtf2WuMJT0hMV-14" value="NO" style="edgeLabel;html=1;align=center;verticalAlign=middle;resizable=0;points=[];" vertex="1" connectable="0" parent="9YrNIW8wtf2WuMJT0hMV-10">
          <mxGeometry x="-0.0462" y="1" relative="1" as="geometry">
            <mxPoint as="offset" />
          </mxGeometry>
        </mxCell>
        <mxCell id="9YrNIW8wtf2WuMJT0hMV-6" value="a &amp;gt; b&lt;br&gt;?" style="rhombus;whiteSpace=wrap;html=1;" vertex="1" parent="1">
          <mxGeometry x="190" y="380" width="80" height="80" as="geometry" />
        </mxCell>
        <mxCell id="9YrNIW8wtf2WuMJT0hMV-11" style="edgeStyle=orthogonalEdgeStyle;rounded=0;orthogonalLoop=1;jettySize=auto;html=1;" edge="1" parent="1" source="9YrNIW8wtf2WuMJT0hMV-7" target="9YrNIW8wtf2WuMJT0hMV-2">
          <mxGeometry relative="1" as="geometry">
            <Array as="points">
              <mxPoint x="400" y="650" />
            </Array>
          </mxGeometry>
        </mxCell>
        <mxCell id="9YrNIW8wtf2WuMJT0hMV-7" value="a" style="shape=document;whiteSpace=wrap;html=1;boundedLbl=1;" vertex="1" parent="1">
          <mxGeometry x="340" y="450" width="120" height="80" as="geometry" />
        </mxCell>
        <mxCell id="9YrNIW8wtf2WuMJT0hMV-12" style="edgeStyle=orthogonalEdgeStyle;rounded=0;orthogonalLoop=1;jettySize=auto;html=1;" edge="1" parent="1" source="9YrNIW8wtf2WuMJT0hMV-8" target="9YrNIW8wtf2WuMJT0hMV-2">
          <mxGeometry relative="1" as="geometry">
            <Array as="points">
              <mxPoint x="80" y="650" />
            </Array>
          </mxGeometry>
        </mxCell>
        <mxCell id="9YrNIW8wtf2WuMJT0hMV-8" value="b" style="shape=document;whiteSpace=wrap;html=1;boundedLbl=1;" vertex="1" parent="1">
          <mxGeometry x="10" y="450" width="120" height="80" as="geometry" />
        </mxCell>
      </root>
    </mxGraphModel>
  </diagram>
</mxfile>
